<svg xmlns="http://www.w3.org/2000/svg" viewBox="0 0 64 64">
  <defs>
    <linearGradient id="coffeeGrad" x1="0%" y1="0%" x2="100%" y2="100%">
      <stop offset="0%" style="stop-color:#f59e0b"/>
      <stop offset="100%" style="stop-color:#ea580c"/>
    </linearGradient>
  </defs>
  <rect width="64" height="64" rx="14" fill="url(#coffeeGrad)"/>
  <g fill="white">
    <!-- Coffee cup body -->
    <path d="M16 24h24v20c0 4-4 8-8 8h-8c-4 0-8-4-8-8V24z"/>
    <!-- Cup handle -->
    <path d="M40 28h4c3 0 6 3 6 6s-3 6-6 6h-4v-4h4c1 0 2-1 2-2s-1-2-2-2h-4v-4z"/>
    <!-- Steam lines -->
    <path d="M22 14c0-3 2-4 2-6s-2-3-2-6" stroke="white" stroke-width="2" fill="none" stroke-linecap="round"/>
    <path d="M28 16c0-3 2-4 2-6s-2-3-2-6" stroke="white" stroke-width="2" fill="none" stroke-linecap="round"/>
    <path d="M34 14c0-3 2-4 2-6s-2-3-2-6" stroke="white" stroke-width="2" fill="none" stroke-linecap="round"/>
  </g>
</svg>
